# Alias OBJ Model File
# Exported from SketchUp, (c) 2000-2012 Trimble Navigation Limited
# File units = inches

mtllib fence.mtl

g Mesh1 Model

usemtl FrontColor
v -82.0037 0 -65.2509
vt -82.0037 0
vn 0 0 1
v 87.4338 0 -65.2509
vt 87.4338 0
v 87.4338 2.875 -65.2509
vt 87.4338 2.875
v -82.0037 2.875 -65.2509
vt -82.0037 2.875
f 1/1/1 2/2/1 3/3/1 4/4/1 

v 87.4338 0 -80.1884
vt -87.4338 80.1884
vn 0 -1 -0
vt -87.4338 65.2509
vt 82.0037 65.2509
v -82.0037 0 -80.1884
vt 82.0037 80.1884
f 5/5/2 2/6/2 1/7/2 6/8/2 

vt 65.2509 0
vn 1 0 -0
vt 80.1884 0
v 87.4338 2.875 -80.1884
vt 80.1884 2.875
vt 65.2509 2.875
f 2/9/3 5/10/3 7/11/3 3/12/3 

vt -87.4338 0
vn 0 0 -1
vt 82.0037 0
v -82.0037 2.875 -80.1884
vt 82.0037 2.875
vt -87.4338 2.875
f 5/13/4 6/14/4 8/15/4 7/16/4 

vt -80.1884 0
vn -1 0 -0
vt -65.2509 0
vt -65.2509 2.875
vt -80.1884 2.875
f 6/17/5 1/18/5 4/19/5 8/20/5 

vt 87.4338 65.2509
vn 0 1 -0
vt 87.4338 80.1884
vt -82.0037 80.1884
vt -82.0037 65.2509
f 3/21/6 7/22/6 8/23/6 4/24/6 

g Mesh2 Model

v 87.4338 -19.5251 -65.2509
v 87.4338 -19.5251 -80.1884
v -82.0037 -19.5251 -80.1884
v -82.0037 -19.5251 -65.2509
f 9/21/6 10/22/6 11/23/6 12/24/6 

v 87.4338 -22.4001 -65.2509
vt 65.2509 -22.4001
v 87.4338 -22.4001 -80.1884
vt 80.1884 -22.4001
vt 80.1884 -19.5251
vt 65.2509 -19.5251
f 13/25/3 14/26/3 10/27/3 9/28/3 

v -82.0037 -22.4001 -65.2509
v -82.0037 -22.4001 -80.1884
f 14/5/2 13/6/2 15/7/2 16/8/2 

vt -82.0037 -22.4001
vt 87.4338 -22.4001
vt 87.4338 -19.5251
vt -82.0037 -19.5251
f 15/29/1 13/30/1 9/31/1 12/32/1 

vt -80.1884 -22.4001
vt -65.2509 -22.4001
vt -65.2509 -19.5251
vt -80.1884 -19.5251
f 16/33/5 15/34/5 12/35/5 11/36/5 

vt -87.4338 -22.4001
vt 82.0037 -22.4001
vt 82.0037 -19.5251
vt -87.4338 -19.5251
f 14/37/4 16/38/4 11/39/4 10/40/4 

g Mesh3 Model

v 77.5164 -41.4936 -65.6158
vt -77.5164 65.6158
v 77.5164 -41.4936 -80.5533
vt -77.5164 80.5533
v 80.3914 -41.4936 -80.5533
vt -80.3914 80.5533
v 80.3914 -41.4936 -65.6158
vt -80.3914 65.6158
f 17/41/2 18/42/2 19/43/2 20/44/2 

vt -80.5533 -41.4936
vt -65.6158 -41.4936
v 77.5164 15.6939 -65.6158
vt -65.6158 15.6939
v 77.5164 15.6939 -80.5533
vt -80.5533 15.6939
f 18/45/5 17/46/5 21/47/5 22/48/5 

vt 77.5164 15.6939
vt 77.5164 -41.4936
vt 80.3914 -41.4936
v 80.3914 15.6939 -65.6158
vt 80.3914 15.6939
f 21/49/1 17/50/1 20/51/1 23/52/1 

vt 65.6158 -41.4936
vt 80.5533 -41.4936
v 80.3914 15.6939 -80.5533
vt 80.5533 15.6939
vt 65.6158 15.6939
f 20/53/3 19/54/3 24/55/3 23/56/3 

vt -77.5164 -41.4936
vt -77.5164 15.6939
vt -80.3914 15.6939
vt -80.3914 -41.4936
f 18/57/4 22/58/4 24/59/4 19/60/4 

vt 77.5164 80.5533
vn 9.88581e-15 1 -0
vt 77.5164 65.6158
vt 80.3914 65.6158
vt 80.3914 80.5533
f 22/61/7 21/62/7 23/63/7 24/64/7 

g Mesh4 Model

v -76.6305 16.9758 -80.1803
vt -76.6305 80.1803
vn -4.94291e-15 1 -0
v -76.6305 16.9758 -65.2428
vt -76.6305 65.2428
v -73.7555 16.9758 -65.2428
vt -73.7555 65.2428
v -73.7555 16.9758 -80.1803
vt -73.7555 80.1803
f 25/65/8 26/66/8 27/67/8 28/68/8 

v -76.6305 -41.3367 -80.1803
vt -80.1803 -41.3367
vn -1 1.67742e-16 -0
v -76.6305 -41.3367 -65.2428
vt -65.2428 -41.3367
vt -65.2428 16.9758
vt -80.1803 16.9758
f 29/69/9 30/70/9 26/71/9 25/72/9 

vt 76.6305 65.2428
vn -1.48287e-14 -1 -0
vt 76.6305 80.1803
v -73.7555 -41.3367 -80.1803
vt 73.7555 80.1803
v -73.7555 -41.3367 -65.2428
vt 73.7555 65.2428
f 30/73/10 29/74/10 31/75/10 32/76/10 

vt 76.6305 -41.3367
vt 76.6305 16.9758
vt 73.7555 16.9758
vt 73.7555 -41.3367
f 29/77/4 25/78/4 28/79/4 31/80/4 

vt 65.2428 -41.3367
vn 1 -1.67742e-16 -0
vt 80.1803 -41.3367
vt 80.1803 16.9758
vt 65.2428 16.9758
f 32/81/11 31/82/11 28/83/11 27/84/11 

vt -76.6305 16.9758
vt -76.6305 -41.3367
vt -73.7555 -41.3367
vt -73.7555 16.9758
f 26/85/1 30/86/1 32/87/1 27/88/1 

